{"title":"Shadow 2009.BRRip.x264.Feel-Free","uid":6056412,"size":1584363664,"categoryP":"video","categoryS":"movies","magnet":"?xt=urn:btih:fecfd6e86ce136244f14e62742981554be028e1d&amp;dn=Shadow+2009.BRRip.x264.Feel-Free&amp;tr=udp%3A%2F%2Ftracker.openbittorrent.com%3A80&amp;tr=udp%3A%2F%2Fopen.demonii.com%3A1337&amp;tr=udp%3A%2F%2Ftracker.coppersurfer.tk%3A6969&amp;tr=udp%3A%2F%2Fexodus.desync.com%3A6969","seeders":1,"leechers":0,"uploader":"neon","files":-1,"time":1292930611,"description":"Genre:Horror\nLanguage:English\n &lt;a href=&quot; http://www.imdb.com/title/tt1425253/&quot; rel=&quot;nofollow&quot; target=&quot;_NEW&quot;&gt; http://www.imdb.com/title/tt1425253/&lt;/a&gt;\nSource:1080p BluRay x264-KaKa\n\n\nFormat : Matroska\nFile size : 1.47 GiB\nDuration : 1h 14mn\nOverall bit rate : 2 827 Kbps\n\n\nVideo\nFormat settings, CABAC : Yes\nFormat settings, ReFrames : 4 frames\nCodec ID : V_MPEG4/ISO/AVC\nDuration : 1h 14mn\nBit rate : 2 500 Kbps\nWidth : 1 280 pixels\nHeight : 544 pixels\nDisplay aspect ratio : 2.35:1\nFrame rate mode : Variable\nFrame rate : 25.000 fps\nColor space : YUV\nChroma subsampling : 4:2:0\nBit depth : 8 bits\nScan type : Progressive\nBits/(Pixel*Frame) : 0.144\nStream size : 1.24 GiB (84%)\nWriting library : x264\n\n\nAudio\nID : 2\nFormat : AC-3\nFormat/Info : Audio Coding 3\nMode extension : CM (complete main)\nCodec ID : A_AC3\nDuration : 1h 14mn\nBit rate mode : Constant\nBit rate : 384 Kbps\nChannel(s) : 6 channels\nChannel positions : Front: L C R, Side: L R, LFE\nSampling rate : 48.0 KHz\nBit depth : 16 bits\nVideo delay : -1mn 5s\nStream size : 205 MiB (14%)\nLanguage : English\n\n\n\n\nPlot:\nWhen a young soldier leaves for a mountain biking excursion he meets the girl of his dreams as well a group of violent locals who want to see them dead at any cost.\n &lt;a href=&quot;\nhttp://www.rapidhdd.com/images/345988vlcsnap-2010-12-21-11h54m30s93.png&quot; rel=&quot;nofollow&quot; target=&quot;_NEW&quot;&gt;\nhttp://www.rapidhdd.com/images/345988vlcsnap-2010-12-21-11h54m30s93.png&lt;/a&gt; &lt;a href=&quot;\nhttp://www.rapidhdd.com/images/576123vlcsnap-2010-12-21-11h55m26s143.png&quot; rel=&quot;nofollow&quot; target=&quot;_NEW&quot;&gt;\nhttp://www.rapidhdd.com/images/576123vlcsnap-2010-12-21-11h55m26s143.png&lt;/a&gt; &lt;a href=&quot;\nhttp://www.rapidhdd.com/images/512343vlcsnap-2010-12-21-11h54m51s58.png&quot; rel=&quot;nofollow&quot; target=&quot;_NEW&quot;&gt;\nhttp://www.rapidhdd.com/images/512343vlcsnap-2010-12-21-11h54m51s58.png&lt;/a&gt;","torrent":{"xt":"urn:btih:fecfd6e86ce136244f14e62742981554be028e1d","amp;dn":"Shadow+2009.BRRip.x264.Feel-Free","amp;tr":["udp%3A%2F%2Ftracker.openbittorrent.com%3A80","udp%3A%2F%2Fopen.demonii.com%3A1337","udp%3A%2F%2Ftracker.coppersurfer.tk%3A6969","udp%3A%2F%2Fexodus.desync.com%3A6969"],"infoHash":"fecfd6e86ce136244f14e62742981554be028e1d","infoHashBuffer":{"type":"Buffer","data":[254,207,214,232,108,225,54,36,79,20,230,39,66,152,21,84,190,2,142,29]},"announce":[],"urlList":[]}}